<svg xmlns="http://www.w3.org/2000/svg" viewBox="0 0 600 330" width="600" height="330" role="img">
  <defs>
    <linearGradient id="bg" x1="0" y1="0" x2="0" y2="1">
      <stop offset="0" stop-color="#151b28"/>
      <stop offset="1" stop-color="#0d1119"/>
    </linearGradient>
  </defs>
  <rect width="600" height="330" rx="18" fill="url(#bg)"/>
  <rect x="1" y="1" width="598" height="328" rx="17" fill="none" stroke="#26314a" stroke-width="2"/>
  <g><g transform="translate(0 -33.0)"><rect x="196" y="120" width="104" height="140" rx="10" fill="#33405c"/><rect x="210" y="136" width="76" height="52" rx="6" fill="#0f1524"/><text x="248" y="172" text-anchor="middle" font-family="Helvetica,Arial,sans-serif" font-size="26" font-weight="700" fill="#f59e0b">$84</text><rect x="214" y="204" width="68" height="10" rx="5" fill="#26314a"/><rect x="214" y="222" width="46" height="10" rx="5" fill="#26314a"/><path d="M300 148 h26 a10 10 0 0 1 10 10 v56 a12 12 0 0 0 24 0 v-38" stroke="#94a3b8" stroke-width="7" fill="none" stroke-linecap="round"/><circle cx="392" cy="238" r="20" fill="#f59e0b"/><circle cx="392" cy="238" r="14" fill="#fbbf24"/><text x="392" y="245" text-anchor="middle" font-family="Helvetica,Arial,sans-serif" font-size="15" font-weight="700" fill="#78350f">$12</text></g></g>
  <rect x="248" y="300" width="104" height="4" rx="2" fill="#f59e0b" opacity="0.85"/>
</svg>
